<?xml version="1.0" encoding="UTF-8" standalone="no"?>
<svg
   xmlns:dc="http://purl.org/dc/elements/1.1/"
   xmlns:cc="http://creativecommons.org/ns#"
   xmlns:rdf="http://www.w3.org/1999/02/22-rdf-syntax-ns#"
   xmlns:svg="http://www.w3.org/2000/svg"
   xmlns="http://www.w3.org/2000/svg"
   viewBox="0 0 441.24933 439.45599"
   height="439.45599"
   width="441.24933"
   xml:space="preserve"
   id="svg2"
   version="1.1"><metadata
     id="metadata8"><rdf:RDF><cc:Work
         rdf:about=""><dc:format>image/svg+xml</dc:format><dc:type
           rdf:resource="http://purl.org/dc/dcmitype/StillImage" /></cc:Work></rdf:RDF></metadata><defs
     id="defs6"><clipPath
       id="clipPath34"
       clipPathUnits="userSpaceOnUse"><path
         id="path32"
         d="M 0,0 H 330.936 V 329.592 H 0 Z" /></clipPath></defs><g
     transform="matrix(1.3333333,0,0,-1.3333333,0,439.456)"
     id="g10"><g
       transform="translate(236.0262,203.937)"
       id="g12"><path
         id="path14"
         style="fill:#da1a32;fill-opacity:1;fill-rule:nonzero;stroke:none"
         d="m 0,0 -9.148,8.99 -9.038,-8.298 8.947,-27.545 z" /></g><g
       transform="translate(200.3452,243.2272)"
       id="g16"><path
         id="path18"
         style="fill:#231f20;fill-opacity:1;fill-rule:nonzero;stroke:none"
         d="M 0,0 -6.382,9.523 -38.371,5.107 -8.617,-7.802 Z" /></g><g
       transform="translate(214.9178,205.3921)"
       id="g20"><path
         id="path22"
         style="fill:#da1a32;fill-opacity:1;fill-rule:nonzero;stroke:none"
         d="m 0,0 -3.639,11.214 -10.45,-1.492 -9.034,-30.951 z" /></g><g
       transform="translate(202.0098,228.2026)"
       id="g24"><path
         id="path26"
         style="fill:#da1a32;fill-opacity:1;fill-rule:nonzero;stroke:none"
         d="m 0,0 -9.793,4.247 -20.994,-19.01 27.626,3.948 z" /></g><g
       id="g28"><g
         clip-path="url(#clipPath34)"
         id="g30"><g
           transform="translate(205.0499,303.5887)"
           id="g36"><path
             id="path38"
             style="fill:#009ada;fill-opacity:1;fill-rule:nonzero;stroke:none"
             d="M 0,0 C -13.385,-9.111 -24.207,-21.69 -24.207,-21.69 L 0.79,-33.037 Z" /></g><g
           transform="translate(151.0783,180.4564)"
           id="g40"><path
             id="path42"
             style="fill:#009ada;fill-opacity:1;fill-rule:nonzero;stroke:none"
             d="m 0,0 -1.889,16.455 14.195,12.852 -18.551,-2.652 -3.276,3.61 C -12.779,20.417 -15.757,9.941 -18.632,-1.241 -13.001,-0.679 -6.84,-0.237 0,0" /></g><g
           transform="translate(225.0171,274.8038)"
           id="g44"><path
             id="path46"
             style="fill:#00aa4f;fill-opacity:1;fill-rule:nonzero;stroke:none"
             d="m 0,0 -17.384,27.09 0.777,-32.561 10.193,-4.842 z" /></g><g
           transform="translate(206.1615,256.9873)"
           id="g48"><path
             id="path50"
             style="fill:#00aa4f;fill-opacity:1;fill-rule:nonzero;stroke:none"
             d="m 0,0 -0.254,10.732 c 0,0 -26.856,12.247 -27.012,12.068 l 16.293,-24.314 z" /></g><g
           transform="translate(177.1693,277.7952)"
           id="g52"><path
             id="path54"
             style="fill:#006fba;fill-opacity:1;fill-rule:nonzero;stroke:none"
             d="m 0,0 c -7.265,-8.51 -13.433,-17.598 -18.804,-27.405 l 34.031,4.696 z" /></g><g
           transform="translate(246.9028,309.972)"
           id="g56"><path
             id="path58"
             style="fill:#009ada;fill-opacity:1;fill-rule:nonzero;stroke:none"
             d="M 0,0 C 0.862,6.568 1.771,13.114 2.753,19.62 -13.323,12.09 -26.995,4.231 -38.774,-4.155 l 18.375,-28.628 z" /></g><g
           transform="translate(187.8668,179.7687)"
           id="g60"><path
             id="path62"
             style="fill:#009ada;fill-opacity:1;fill-rule:nonzero;stroke:none"
             d="M 0,0 10.202,34.95 -19.999,30.635 -36.004,16.143 -34.239,0.769 c 9.521,0.248 20.35,0.093 32.841,-0.679" /></g><g
           transform="translate(234.3898,264.9035)"
           id="g64"><path
             id="path66"
             style="fill:#00aa4f;fill-opacity:1;fill-rule:nonzero;stroke:none"
             d="m 0,0 8.368,4.664 c 0.811,11.558 1.971,23.01 3.379,34.365 L -6.363,9.923 Z" /></g><g
           transform="translate(238.0336,201.9661)"
           id="g68"><path
             id="path70"
             style="fill:#006fba;fill-opacity:1;fill-rule:nonzero;stroke:none"
             d="m 0,0 -8.943,-25.995 c 5.927,-0.608 7.218,-0.673 12.765,-1.115 C 2.141,-21.166 0.761,-11.405 0,0" /></g><g
           transform="translate(190.5668,179.5903)"
           id="g72"><path
             id="path74"
             style="fill:#009ada;fill-opacity:1;fill-rule:nonzero;stroke:none"
             d="M 0,0 C 0.048,-0.001 0.092,-0.004 0.144,-0.01 12.053,-0.855 23.213,-2.03 33.751,-3.125 L 25.218,23.152 Z" /></g><g
           transform="translate(297.88,197.6804)"
           id="g76"><path
             id="path78"
             style="fill:#009ada;fill-opacity:1;fill-rule:nonzero;stroke:none"
             d="M 0,0 10.636,9.707 C 9.471,17.46 8.456,25.306 7.611,33.25 L -31.233,46.772 C -33.254,41.449 -35.12,35.991 -36.838,30.407 L -21.41,9.001 Z" /></g><g
           transform="translate(286.325,174.6931)"
           id="g80"><path
             id="path82"
             style="fill:#006fba;fill-opacity:1;fill-rule:nonzero;stroke:none"
             d="M 0,0 3.543,9.059 -11.502,29.936 -29.658,37.57 C -32.686,25.348 -35.042,12.602 -36.745,-0.584 -23.607,-1.523 -11.466,-1.674 0,0" /></g><g
           transform="translate(260.1126,225.0376)"
           id="g84"><path
             id="path86"
             style="fill:#009ada;fill-opacity:1;fill-rule:nonzero;stroke:none"
             d="m 0,0 c -0.994,-3.385 -1.944,-6.813 -2.836,-10.288 l 14.713,-6.18 z" /></g><g
           transform="translate(303.1491,307.5013)"
           id="g88"><path
             id="path90"
             style="fill:#006fba;fill-opacity:1;fill-rule:nonzero;stroke:none"
             d="m 0,0 c -12.526,-14.589 -22.906,-31.515 -31.262,-50.317 l 30.764,24.225 C -0.553,-17.521 -0.403,-8.838 0,0" /></g><g
           transform="translate(298.3908,194.7188)"
           id="g92"><path
             id="path94"
             style="fill:#006fba;fill-opacity:1;fill-rule:nonzero;stroke:none"
             d="m 0,0 -19.084,8.025 13.43,-18.634 -3.507,-8.953 c 8.151,1.43 15.968,3.861 23.559,7.663 -1.394,7.113 -2.671,14.294 -3.815,21.557 z" /></g><g
           transform="translate(267.5555,246.8161)"
           id="g96"><path
             id="path98"
             style="fill:#006fba;fill-opacity:1;fill-rule:nonzero;stroke:none"
             d="m 0,0 37.645,-13.108 c -1.456,14.475 -2.33,29.286 -2.52,44.497 L 2.242,5.495 C 1.479,3.676 0.718,1.852 0,0" /></g><g
           transform="translate(111.0425,191.1573)"
           id="g100"><path
             id="path102"
             style="fill:#009ada;fill-opacity:1;fill-rule:nonzero;stroke:none"
             d="M 0,0 C 1.615,3.876 3.296,7.695 5.059,11.483 L -12.309,7.301 Z" /></g><g
           transform="translate(66.1326,190.6029)"
           id="g104"><path
             id="path106"
             style="fill:#006fba;fill-opacity:1;fill-rule:nonzero;stroke:none"
             d="m 0,0 -3.772,-17.021 c 15.827,-2.624 27.717,-0.76 42.508,1.714 1.69,4.636 3.412,9.118 5.196,13.495 l -14.86,8.817 z" /></g><g
           transform="translate(63.9939,192.6907)"
           id="g108"><path
             id="path110"
             style="fill:#006fba;fill-opacity:1;fill-rule:nonzero;stroke:none"
             d="M 0,0 28.088,6.766 10.021,17.486 -36.267,-8.53 c 12.803,-5.257 23.129,-8.416 32.13,-10.134 z" /></g><g
           transform="translate(117.4851,205.5775)"
           id="g112"><path
             id="path114"
             style="fill:#009ada;fill-opacity:1;fill-rule:nonzero;stroke:none"
             d="M 0,0 C 3.172,6.62 6.645,13.224 10.56,20.036 L 1.589,29.923 -40.92,6.03 -21.872,-5.268 Z" /></g><g
           transform="translate(142.3588,248.588)"
           id="g116"><path
             id="path118"
             style="fill:#006fba;fill-opacity:1;fill-rule:nonzero;stroke:none"
             d="m 0,0 -21.017,-11.814 8.038,-8.858 C -9.12,-14.083 -4.857,-7.273 0,0" /></g><g
           transform="translate(157.15,247.6681)"
           id="g120"><path
             id="path122"
             style="fill:#006fba;fill-opacity:1;fill-rule:nonzero;stroke:none"
             d="M 0,0 -0.202,0.09 C -0.222,0.046 -0.244,0.004 -0.266,-0.036 -5.793,-10.542 -10.475,-21.875 -14.667,-34.191 l 3.326,-3.67 20.931,2.991 22.927,20.759 z" /></g><g
           transform="translate(190.4216,179.4619)"
           id="g124"><path
             id="path126"
             style="fill:#009ada;fill-opacity:1;fill-rule:nonzero;stroke:none"
             d="M 0,0 0.142,0.127 C 0.111,0.13 0.075,0.133 0.042,0.136 Z" /></g><g
           transform="translate(330.9371,170.401)"
           id="g128"><path
             id="path130"
             style="fill:#006fba;fill-opacity:1;fill-rule:nonzero;stroke:none"
             d="m 0,0 c -25.543,-16.11 -55.752,-14.462 -91.853,-9.889 -37.22,4.71 -65.043,6.109 -116.442,-24.944 47.527,13.732 70.905,10.32 116.584,1.413 C -40.493,-43.412 -11.918,-27.507 0,0" /></g><g
           transform="translate(0,172.7555)"
           id="g132"><path
             id="path134"
             style="fill:#006fba;fill-opacity:1;fill-rule:nonzero;stroke:none"
             d="M 0,0 C 67.509,-36.862 130.313,-0.653 175.481,-6.446 119.944,-16.202 68.69,-74.632 0,0" /></g><g
           transform="translate(33.5086,94.2947)"
           id="g136"><path
             id="path138"
             style="fill:#009ada;fill-opacity:1;fill-rule:nonzero;stroke:none"
             d="M 0,0 C 0.597,0 1.108,0.572 1.564,1.764 1.875,2.661 2.03,3.429 2.03,4.056 2.03,4.8 1.44,5.499 0.231,6.18 -1.398,7.101 -2.579,7.919 -3.275,8.615 L -3.6,8.938 -3.788,8.517 c -1.631,-3.647 -1.85,-4.413 -1.85,-4.683 0,-0.405 0.329,-0.998 2.76,-2.385 C -0.423,0 -0.15,0 0,0" /></g><g
           transform="translate(37.783,97.2966)"
           id="g140"><path
             id="path142"
             style="fill:#009ada;fill-opacity:1;fill-rule:nonzero;stroke:none"
             d="m 0,0 3.21,-1.755 0.166,0.199 c 0.474,0.574 0.904,1.435 1.32,2.621 0.335,1.033 0.499,1.742 0.499,2.171 0,0.495 -0.609,1.213 -5.026,3.143 L 0.04,6.408 c -0.288,0 -0.616,-0.17 -1.446,-2.203 C -2.174,2.297 -2.174,2.125 -2.174,2.017 -2.174,1.654 -1.926,1.099 0,0" /></g><g
           transform="translate(41.0798,67.044)"
           id="g144"><path
             id="path146"
             style="fill:#009ada;fill-opacity:1;fill-rule:nonzero;stroke:none"
             d="m 0,0 c 0,-0.051 -0.013,-0.091 -0.04,-0.133 -0.651,-0.712 -1.637,-1.501 -2.937,-2.34 -1.555,-0.975 -2.8,-1.471 -3.7,-1.471 -0.904,0 -1.024,0.399 -1.024,0.795 0,0.812 0.42,2.087 1.252,3.789 0.773,1.589 1.561,2.896 2.344,3.907 C -0.542,1.446 0,0.365 0,0 m 4.038,20.354 c -0.336,0 -0.766,-0.236 -1.639,-1.95 -2.226,-3.232 -4.232,-6.024 -5.964,-8.311 -2.395,2.057 -3.487,3.068 -3.974,3.564 0.654,0.076 1.109,0.124 1.384,0.146 0.692,0.045 0.835,0.336 0.835,0.572 0,0.273 -0.149,0.601 -1.94,1.606 -0.97,0.568 -1.938,1.124 -2.894,1.659 -1.749,1.129 -2.042,0.966 -2.187,0.887 l -0.196,-0.151 v -0.183 c 0,-1.027 -0.038,-2.437 -0.109,-4.243 -0.043,-0.243 0.041,-0.404 0.122,-0.5 0.135,-0.159 0.349,-0.248 0.667,-0.273 1.267,-2.346 3.179,-4.638 5.69,-6.825 -1.141,-1.719 -1.938,-3.258 -2.372,-4.581 -1.024,-3.029 -1.543,-5.485 -1.543,-7.294 0,-2.567 0.967,-3.991 2.879,-4.236 0.089,-0.012 0.182,-0.018 0.281,-0.018 0.996,0 2.393,0.631 4.258,1.923 1.895,1.326 3.024,2.368 3.448,3.191 0.889,1.742 1.338,3.572 1.338,5.442 0,1.16 -0.181,2.318 -0.536,3.43 -0.283,0.867 -1.257,2.153 -2.976,3.935 2.995,4.109 4.767,6.682 5.263,7.642 0.517,1.006 0.777,2.15 0.777,3.402 0,0.293 0,1.166 -0.612,1.166" /></g><g
           transform="translate(90.5124,59.1032)"
           id="g148"><path
             id="path150"
             style="fill:#009ada;fill-opacity:1;fill-rule:nonzero;stroke:none"
             d="m 0,0 h 0.003 c 1.733,0.975 3.039,1.967 3.88,2.958 2.108,2.478 3.009,5.091 2.678,7.764 -0.231,1.808 -1.369,3.907 -3.39,6.242 -2.007,2.269 -2.941,3.487 -3.353,4.135 0.396,-0.042 0.844,-0.062 1.333,-0.062 0.821,0 0.91,0.481 0.91,0.685 0,0.4 -0.332,0.87 -1.057,1.476 -1.774,1.323 -3.317,2.437 -4.558,3.282 -0.3,0.26 -0.544,0.244 -0.697,0.194 -0.382,-0.139 -0.506,-0.643 -0.571,-1.024 -0.198,-1.582 -0.347,-2.848 -0.446,-3.789 -0.016,-0.181 0.037,-0.343 0.151,-0.47 0.142,-0.156 0.361,-0.241 0.679,-0.27 0.889,-2.553 2.463,-5.137 4.678,-7.684 C 2.558,10.763 3.908,8.987 4.244,8.156 4.246,8.131 4.308,7.639 1.407,6.03 -0.789,4.842 -2.941,4.196 -4.972,4.123 c -1.474,0.071 -2.846,0.9 -4.08,2.464 -1.545,1.897 -2.662,4.669 -3.318,8.23 -1.161,6.219 -1.699,8.87 -2.759,12.114 -4.462,13.632 -5.41,13.632 -5.92,13.632 -0.162,0 -0.398,-0.066 -0.596,-0.365 l -0.73,-4.569 0.02,-0.07 c 1.159,-3.758 2.325,-7.251 3.462,-10.383 0.606,-1.801 1.001,-2.935 1.259,-3.684 0.36,-1.036 0.455,-1.31 0.51,-1.609 l 0.647,-3.34 c -1.293,-2.512 -3.341,-5.03 -6.09,-7.473 -0.857,-0.761 -2.248,-1.839 -4.142,-3.205 -2.226,-1.608 -4.819,-2.995 -7.702,-4.114 -2.238,-0.845 -3.714,-1.274 -4.39,-1.274 -2.854,0 -4.309,1.223 -4.446,3.741 -0.172,2.745 1.333,7.191 4.465,13.209 0.452,0.871 0.667,1.534 0.667,2.039 0,0.479 -0.277,0.644 -0.539,0.644 -0.325,0 -0.793,-0.21 -1.761,-1.78 -3.363,-5.608 -5.064,-10.685 -5.064,-15.094 0,-5.764 2.006,-8.683 5.967,-8.683 3.623,0 8.083,1.883 13.248,5.613 4.402,3.194 7.558,6.196 9.383,8.935 0.534,0.82 0.989,1.831 1.352,3.01 1.345,-5.436 2.716,-8.878 4.178,-10.496 C -6.831,-3.21 -1.518,-0.845 0,0" /></g><g
           transform="translate(94.5189,54.1361)"
           id="g152"><path
             id="path154"
             style="fill:#009ada;fill-opacity:1;fill-rule:nonzero;stroke:none"
             d="m 0,0 -0.143,0.032 c -0.371,0 -0.731,-0.379 -1.449,-2.317 -0.228,-0.62 -0.383,-1.066 -0.493,-1.399 -0.017,0.117 -0.052,0.2 -0.091,0.269 -0.278,0.471 -0.787,0.884 -1.509,1.231 -0.858,0.433 -1.731,1.082 -2.596,1.943 l -0.326,0.325 -0.187,-0.425 c -1.606,-3.633 -1.813,-4.446 -1.813,-4.758 0,-0.372 0.244,-0.954 2.157,-2.114 1.754,-1.106 2.103,-1.199 2.291,-1.199 0.643,0 1.159,0.728 1.624,2.3 0.138,0.465 0.237,0.845 0.309,1.16 0.247,-0.429 1.167,-1.252 4.646,-3.198 l 0.225,-0.127 0.17,0.196 c 0.477,0.556 0.909,1.396 1.324,2.582 0.362,1.032 0.538,1.745 0.538,2.184 C 4.677,-2.817 4.123,-2.033 0,0" /></g><g
           transform="translate(169.5543,72.117)"
           id="g156"><path
             id="path158"
             style="fill:#009ada;fill-opacity:1;fill-rule:nonzero;stroke:none"
             d="m 0,0 c -6.472,-3.165 -12.867,-5.317 -19.025,-6.381 -1.245,2.92 -2.243,5.046 -2.963,6.312 -0.016,0.037 -0.04,0.099 -0.04,0.222 0,0.581 0.409,1.284 1.212,2.099 0.81,0.819 1.553,1.264 2.206,1.329 0.723,0.072 1.456,0.114 2.182,0.114 2.534,0 5.621,-0.573 9.171,-1.693 C -3.967,0.975 -1.534,0.305 0,0 M 12.003,3.635 11.893,3.78 11.73,3.805 C 8.146,4.175 2.841,5.29 -4.033,7.127 -10.298,8.808 -14.08,9.59 -15.551,9.511 c -2.56,-0.13 -4.706,-1.186 -6.383,-3.152 -1.669,-1.947 -2.525,-4.261 -2.55,-6.87 0,-1.023 0.683,-3.116 2.087,-6.394 -1.342,-0.124 -2.559,-0.191 -3.628,-0.209 -1.508,0.041 -2.914,0.866 -4.174,2.467 -1.547,1.897 -2.665,4.67 -3.319,8.228 -0.276,1.476 -0.504,2.753 -0.708,3.896 -0.652,3.649 -1.044,5.852 -1.861,8.348 -4.462,13.633 -5.411,13.633 -5.919,13.633 -0.164,0 -0.398,-0.064 -0.599,-0.366 l -0.73,-4.568 0.023,-0.069 c 1.155,-3.757 2.322,-7.253 3.461,-10.379 1.326,-3.939 1.466,-4.77 1.55,-5.268 l 0.676,-3.489 c -1.293,-2.521 -3.343,-5.036 -6.09,-7.484 -0.861,-0.756 -2.257,-1.834 -4.145,-3.207 -2.224,-1.605 -4.819,-2.986 -7.701,-4.107 -2.235,-0.845 -3.714,-1.271 -4.39,-1.271 -2.853,0 -4.305,1.217 -4.446,3.738 -0.168,2.746 1.335,7.19 4.466,13.208 0.451,0.871 0.671,1.538 0.671,2.035 0,0.477 -0.294,0.649 -0.541,0.649 -0.328,0 -0.791,-0.211 -1.761,-1.784 -3.362,-5.602 -5.069,-10.679 -5.069,-15.092 0,-5.762 2.011,-8.687 5.972,-8.687 3.625,0 8.083,1.888 13.247,5.621 4.402,3.193 7.556,6.195 9.381,8.933 0.537,0.825 0.989,1.827 1.354,3.01 1.229,-4.874 2.691,-8.572 4.156,-10.477 3.728,-4.842 9.042,-3.606 11.599,-3.008 0.21,0.048 0.405,0.094 0.574,0.127 0.12,-0.524 0.182,-1.005 0.183,-1.405 -0.082,-0.658 -0.014,-1.084 0.214,-1.342 0.137,-0.155 0.327,-0.236 0.546,-0.236 0.464,0 0.722,0.555 0.808,0.736 0.423,0.889 0.625,1.782 0.602,2.658 4.618,0.969 10.298,3.111 16.888,6.38 5.706,2.829 9.461,4.227 11.18,4.116 0.423,-0.028 0.796,0.368 1.446,2.562 0.688,2.307 0.579,2.487 0.484,2.643" /></g><g
           transform="translate(166.3958,53.1275)"
           id="g160"><path
             id="path162"
             style="fill:#009ada;fill-opacity:1;fill-rule:nonzero;stroke:none"
             d="M 0,0 C -1.473,0.731 -2.597,1.255 -3.292,1.53 L -3.926,1.933 -4.058,1.98 C -4.454,2.035 -4.714,1.718 -4.813,1.078 -5.208,-0.498 -5.546,-1.712 -5.811,-2.534 l -0.021,-0.063 0.008,-0.067 c 0.056,-0.498 0.132,-0.823 0.245,-1.014 0.088,-0.149 0.314,-0.374 1.966,-1.232 1.318,-0.682 2.167,-1 2.68,-1 0.56,0 0.955,0.659 1.283,2.157 0.121,0.812 0.257,1.624 0.403,2.424 0.056,0.251 0.198,0.913 -0.242,1.127 C 0.355,-0.121 0.181,-0.053 0,0" /></g><g
           transform="translate(210.6052,77.8204)"
           id="g164"><path
             id="path166"
             style="fill:#006fba;fill-opacity:1;fill-rule:nonzero;stroke:none"
             d="m 0,0 v 0 c 2.451,-1.455 2.69,-1.455 2.836,-1.455 0.627,0 1.142,0.578 1.571,1.773 0.305,0.92 0.464,1.699 0.464,2.321 0,0.746 -0.591,1.44 -1.803,2.13 -1.602,0.914 -2.766,1.747 -3.461,2.46 L -0.724,7.572 -0.914,7.135 C -2.762,2.856 -2.762,2.594 -2.762,2.454 -2.762,2.054 -2.434,1.449 0,0" /></g><g
           transform="translate(217.749,78.9645)"
           id="g168"><path
             id="path170"
             style="fill:#006fba;fill-opacity:1;fill-rule:nonzero;stroke:none"
             d="m 0,0 0.004,-0.003 c 0.965,-0.543 1.94,-1.075 2.91,-1.595 l 0.202,-0.114 0.166,0.166 c 0.54,0.535 1.005,1.391 1.414,2.599 0.366,0.985 0.541,1.674 0.541,2.108 0,0.536 -0.617,1.284 -5.101,3.184 L 0.014,6.368 C -0.335,6.368 -0.673,6.024 -1.404,4.264 -2.202,2.295 -2.202,2.121 -2.202,2.017 -2.202,1.647 -1.942,1.124 0,0" /></g><g
           transform="translate(255.4207,56.7656)"
           id="g172"><path
             id="path174"
             style="fill:#006fba;fill-opacity:1;fill-rule:nonzero;stroke:none"
             d="m 0,0 -0.143,0.033 c -0.371,0 -0.73,-0.38 -1.449,-2.321 -0.224,-0.62 -0.381,-1.069 -0.493,-1.399 -0.02,0.12 -0.05,0.206 -0.086,0.269 -0.282,0.471 -0.792,0.886 -1.517,1.235 -0.851,0.429 -1.726,1.078 -2.59,1.942 l -0.327,0.325 -0.19,-0.425 c -1.607,-3.633 -1.806,-4.449 -1.806,-4.755 0,-0.375 0.241,-0.958 2.151,-2.12 1.758,-1.106 2.105,-1.199 2.293,-1.199 0.638,0 1.16,0.731 1.623,2.303 0.14,0.472 0.241,0.855 0.312,1.173 0.28,-0.503 1.313,-1.351 4.645,-3.214 l 0.225,-0.123 0.169,0.192 c 0.477,0.559 0.909,1.406 1.325,2.586 0.362,1.029 0.537,1.745 0.537,2.18 C 4.679,-2.817 4.124,-2.031 0,0" /></g><g
           transform="translate(253.3243,60.882)"
           id="g176"><path
             id="path178"
             style="fill:#006fba;fill-opacity:1;fill-rule:nonzero;stroke:none"
             d="m 0,0 c 1.736,0.975 3.041,1.97 3.886,2.961 2.105,2.482 3.006,5.091 2.68,7.766 -0.234,1.806 -1.37,3.908 -3.395,6.245 -2.007,2.267 -2.938,3.484 -3.354,4.13 0.404,-0.039 0.845,-0.063 1.331,-0.063 0.824,0 0.913,0.479 0.913,0.689 0,0.4 -0.33,0.864 -1.056,1.473 -1.772,1.323 -3.318,2.433 -4.559,3.282 -0.299,0.26 -0.54,0.244 -0.697,0.191 -0.383,-0.137 -0.507,-0.639 -0.568,-1.016 -0.205,-1.587 -0.345,-2.847 -0.446,-3.792 -0.016,-0.183 0.034,-0.348 0.147,-0.471 0.141,-0.157 0.36,-0.244 0.685,-0.271 0.885,-2.556 2.461,-5.137 4.676,-7.678 C 2.564,10.769 3.905,8.99 4.244,8.156 4.246,8.134 4.303,7.645 1.41,6.038 -0.676,4.906 -2.723,4.263 -4.631,4.142 c -1.131,0.06 -2.329,0.508 -3.551,1.32 -1.433,0.987 -2.082,2.005 -1.955,3.038 0.175,1.463 0.263,2.56 0.263,3.262 0,0.333 -0.093,0.588 -0.294,0.752 -0.194,0.179 -0.487,0.243 -0.916,0.169 L -23.503,7.87 C -31.441,5.105 -38.48,3.704 -44.422,3.704 c -5.298,0 -9.472,0.836 -12.381,2.473 -3.024,1.716 -4.519,4.1 -4.565,7.292 -0.023,1.712 0.455,3.471 1.416,5.216 0.316,0.585 -0.01,0.919 -0.165,1.03 -0.202,0.152 -0.383,0.162 -0.504,0.143 -0.188,-0.028 -0.36,-0.151 -0.503,-0.362 -0.718,-1.039 -1.353,-2.498 -1.907,-4.351 -0.553,-1.848 -0.827,-3.448 -0.827,-4.756 0,-4.219 1.752,-7.474 5.203,-9.677 3.161,-1.999 7.629,-3.01 13.267,-3.01 5.121,0 11.12,1.099 17.847,3.273 5.273,1.708 10.361,3.84 15.131,6.332 -0.048,-0.463 -0.07,-0.922 -0.07,-1.363 0,-3.013 1.003,-5.197 2.969,-6.486 0.621,-0.419 1.699,-0.936 3.288,-1.017 C -3.46,-1.694 -1.439,-0.797 0,0" /></g><g
           transform="translate(269.7746,65.1)"
           id="g180"><path
             id="path182"
             style="fill:#006fba;fill-opacity:1;fill-rule:nonzero;stroke:none"
             d="M 0,0 C 0.014,0.38 0.142,0.663 0.394,0.858 0.706,1.096 1.122,1.211 1.635,1.18 2.379,1.138 2.958,0.797 3.399,0.136 3.559,-0.092 3.704,-0.306 3.841,-0.493 1.174,-0.376 0.293,-0.143 0,0 M 43.607,58.084 C 37.047,59.676 14.506,47.635 6.311,42.142 5.866,41.813 5.437,41.528 5.033,41.263 2.999,39.918 1.635,39.01 1.421,35.308 1.416,35.305 1.41,35.305 1.403,35.302 1.122,35.205 0.948,34.886 0.809,34.17 c 0,-1.555 0.059,-2.804 0.183,-3.665 0,-0.238 0.122,-0.621 0.871,-0.681 C 3.333,27.236 7.78,23.104 15.439,17.216 24.705,10.096 26.951,7.814 27.205,7.174 27.205,7.049 26.967,6.268 21.907,3.21 17.784,0.709 14.249,-0.562 11.398,-0.562 L 11.38,-0.572 C 10.921,-0.582 10.428,-0.595 9.888,-0.595 9.258,1.291 8.12,3.088 6.495,4.753 4.828,6.466 3.49,7.298 2.401,7.298 0.906,7.298 -0.534,6.323 -1.885,4.402 -3.204,2.515 -3.887,0.482 -3.906,-1.65 c 0,-0.812 0.349,-1.654 1.034,-2.493 0.571,-0.731 1.217,-1.248 1.906,-1.54 1.199,-0.51 4.063,-0.761 8.746,-0.767 0.158,-0.363 0.297,-0.779 0.396,-1.244 -0.091,-0.273 -1.115,-1.755 -11.189,-8.682 -4.346,-2.984 -11.844,-6.578 -15.837,-8.573 -1.866,-0.927 -2.499,-1.364 -2.709,-1.472 -0.517,-0.341 0.07,-0.501 0.945,-0.158 7.814,3.271 11.497,3.857 13.198,3.782 0.041,0 0.083,-0.003 0.124,-0.003 4.021,0 13.72,8.753 14.155,9.149 1.765,1.944 2.709,3.08 3.216,5.751 0.127,0.653 0.221,1.135 0.283,1.453 0.533,0.003 1.806,0.1 1.806,0.1 v 0.017 c 2.539,0.217 5.61,1.466 9.144,3.749 3.218,2.07 5.138,3.625 5.863,4.764 1.172,1.844 2.488,5.954 1.303,9.707 -0.696,2.199 -4.763,5.462 -11.096,10.015 -6.439,4.587 -9.045,6.746 -10,7.748 0.426,-0.051 0.754,-0.093 0.985,-0.13 0.618,-0.021 0.978,0.053 1.171,0.239 0.109,0.1 0.168,0.23 0.168,0.372 0,0.335 -0.286,0.715 -1.671,1.509 -0.773,0.371 -1.53,0.728 -2.271,1.072 -1.131,0.552 -2.069,1.099 -2.791,1.63 0.019,0.047 0.042,0.082 0.063,0.114 2.115,3.643 32.565,17.119 36.457,18.227 2.136,0.698 3.601,0.793 4.136,0.269 0.292,-0.291 0.313,-0.831 0.066,-1.598 -0.403,-1.244 -5.277,-9.173 -7.982,-13.496 -0.08,-0.122 -0.497,-0.728 -0.314,-0.913 0.247,-0.247 0.692,0.315 0.766,0.414 1.274,1.809 10.032,14.304 10.045,17.045 0.083,2.24 -0.786,3.445 -2.603,3.677" /></g><g
           transform="translate(28.6938,0.5927)"
           id="g184"><path
             id="path186"
             style="fill:#009ada;fill-opacity:1;fill-rule:nonzero;stroke:none"
             d="m 0,0 v 34.418 h 6.813 c 4.739,-9.15 9.828,-17.163 15.061,-24.585 -0.149,1.325 -0.197,2.755 -0.197,4.282 v 20.303 h 6.517 V 0 H 21.33 C 16.046,7.083 11.255,13.618 6.32,22.615 6.469,20.698 6.516,18.733 6.516,16.766 V 0 Z" /></g><g
           transform="translate(83.5506,0.5927)"
           id="g188"><path
             id="path190"
             style="fill:#009ada;fill-opacity:1;fill-rule:nonzero;stroke:none"
             d="M 0,0 H -21.528 V 34.418 H 0 V 28.416 H -14.469 V 20.454 H -2.124 V 14.457 H -14.469 V 5.999 L 0,5.999 Z" /></g><g
           transform="translate(126.556,35.011)"
           id="g192"><path
             id="path194"
             style="fill:#009ada;fill-opacity:1;fill-rule:nonzero;stroke:none"
             d="M 0,0 H 7.211 C 5.332,-11.46 2.076,-24.981 -2.124,-34.418 h -7.752 c -2.42,6.144 -4.591,13.372 -6.417,21.434 -1.877,-8.062 -4,-15.29 -6.472,-21.434 h -7.75 c -3.951,9.437 -7.458,22.958 -9.284,34.418 h 7.161 c 1.529,-10.376 4.294,-22.03 6.319,-27.78 2.123,5.75 5.433,17.057 6.865,27.78 h 6.32 c 1.481,-10.723 4.692,-22.03 6.863,-27.78 1.976,5.75 4.79,17.404 6.271,27.78" /></g><g
           transform="translate(148.2301,14.2581)"
           id="g196"><path
             id="path198"
             style="fill:#006fba;fill-opacity:1;fill-rule:nonzero;stroke:none"
             d="m 0,0 c -1.185,-0.786 -2.47,-1.525 -3.851,-2.256 v -11.41 h -7.063 v 34.419 h 7.063 V 4.771 C 2.716,8.805 6.567,13.917 8.048,20.753 h 7.061 C 13.679,14.264 10.566,8.656 5.234,3.886 L 17.133,-13.666 H 9.034 Z" /></g><g
           transform="translate(166.7485,35.011)"
           id="g200"><path
             id="path202"
             style="fill:#006fba;fill-opacity:1;fill-rule:nonzero;stroke:none"
             d="m 0,0 h 7.057 v -20.256 c 0,-5.609 2.174,-8.556 6.674,-8.556 4.485,0 6.614,2.947 6.614,8.556 V 0 h 7.06 v -20.753 c 0,-9.188 -4.792,-14.257 -13.674,-14.257 C 4.786,-35.01 0,-29.941 0,-20.753 Z" /></g><g
           transform="translate(237.2521,35.011)"
           id="g204"><path
             id="path206"
             style="fill:#006fba;fill-opacity:1;fill-rule:nonzero;stroke:none"
             d="M 0,0 H 7.214 C 5.338,-11.46 2.077,-24.981 -2.119,-34.418 h -7.755 c -2.418,6.144 -4.592,13.372 -6.413,21.434 -1.884,-8.062 -4.003,-15.29 -6.474,-21.434 h -7.748 c -3.955,9.437 -7.458,22.958 -9.287,34.418 h 7.159 c 1.53,-10.376 4.29,-22.03 6.323,-27.78 2.122,5.75 5.431,17.057 6.863,27.78 h 6.317 c 1.486,-10.723 4.692,-22.03 6.869,-27.78 C -4.293,-22.03 -1.478,-10.376 0,0" /></g><g
           transform="translate(252.4129,14.1608)"
           id="g208"><path
             id="path210"
             style="fill:#006fba;fill-opacity:1;fill-rule:nonzero;stroke:none"
             d="M 0,0 H 9.235 C 7.554,5.557 5.978,10.475 4.638,13.374 3.309,10.475 1.673,5.557 0,0 M 11.012,-5.995 H -1.725 c -0.745,-2.513 -1.434,-5.065 -2.083,-7.574 h -7.253 c 3.162,11.503 7.603,25.126 11.996,34.417 h 7.36 c 4.393,-9.291 8.885,-22.865 12.05,-34.417 h -7.26 c -0.694,2.509 -1.385,5.061 -2.073,7.574" /></g><path
           id="path212"
           style="fill:#006fba;fill-opacity:1;fill-rule:nonzero;stroke:none"
           d="m 276.059,35.012 h 7.067 V 0.594 h -7.067 z" /><g
           transform="translate(303.0221,29.0086)"
           id="g214"><path
             id="path216"
             style="fill:#006fba;fill-opacity:1;fill-rule:nonzero;stroke:none"
             d="M 0,0 V -28.416 H -7.062 V 0 h -9.185 V 5.999 H 9.182 L 9.182,0 Z" /></g></g></g></g></svg>