<svg height="518" width="482" xmlns="http://www.w3.org/2000/svg"><path d="m0 0c5.75681329 3.05463563 9.42647425 6.66619002 12.6796875 12.421875v3c-3.74787912-.50452219-7.32636934-1.08159233-11-2v153h2v2h41c0 4 0 4-1.17407227 5.61230469-.54197021.5146582-1.08394043 1.0293164-1.64233398 1.55957031-.89319946.86612915-.89319946.86612915-1.80444336 1.74975586-.64074463.60336182-1.28148926 1.20672363-1.94165039 1.82836914-1.30649392 1.26506416-2.6112049 2.53197245-3.9140625 3.80078125-.62165039.60279785-1.24330078 1.2055957-1.88378906 1.82666016-1.79497946 1.77627061-3.45942196 3.62135463-5.07714844 5.56005859-2.25458563 2.69039471-4.65511604 5.15533126-7.171875 7.59765625-.66717041.6504126-1.33434082 1.3008252-2.02172852 1.97094727-1.338048 1.29738075-2.68451488 2.58615331-4.04052734 3.86474609-4.35301793 4.2278959-6.77789179 8.13397671-9.32836914 13.62915039-7.66025282 3.83012641-19.08884032 2.18560919-27.565485 2.26036072-2.42233972.02143838-4.84456681.04842726-7.26683617.07667541-5.1600132.05917795-10.32008463.11141484-15.48017883.16296387-12.2110992.12300109-24.42165534.25866427-36.63166046.46575928-1.92887459.03212607-3.85780436.06088977-5.78673554.0894165-3.10510669.05338068-6.20794068.13298625-9.31207275.22607422-.85064529.01220581-1.70129059.02441162-2.57771301.0369873-6.43428774.2472742-10.15136012 2.39358949-14.69181824 7.0567627-3.11158266 4.84023969-2.81291919 10.24910099-2.86328125 15.8671875-.02323757 1.4114726-.04735638 2.82293091-.07226563 4.234375-.03469107 2.18238369-.06423946 4.36425262-.07788085 6.546875-.15284618 20.54252537-4.98711285 41.02628883-19.74438477 56.08984375-12.06571662 10.85914496-29.75787067 13.2796321-45.09423828 16.90820313-19.37000011 3.97491292-19.37000011 3.97491292-35.21044922 14.66601562-2.05837657 4.19592147-2.34451251 7.71096649-1.625 12.3125.35835938.66773438.71671875 1.33546875 1.0859375 2.0234375 1.12390717 2.43032918.79594199 3.50729992-.0859375 5.9765625-14.90687236.47323404-24.76806888-4.29759285-35.671875-14.515625-7.22548484-7.71041671-12.20315692-16.9232395-12.453125-27.609375-1.16265548-5.14890284-3.68510567-6.63731324-7.6484375-9.90234375-6.32446441-5.60325356-7.13589738-13.04414331-8.0390625-21.1484375-.43610897-8.89480591 1.38754623-16.15429888 5.8125-23.82421875h3c1.62109375 2.01953125 1.62109375 2.01953125 3.4375 4.8125 11.32740717 16.01461014 30.06815498 28.47811048 49.6015625 31.8671875 12.81918077 1.38677153 24.78366612 1.36255625 35.4609375-6.8046875 4.34463662-3.5530291 5.49493617-8.55188418 6.5-13.875.39359284-4.9202716.38140521-9.81841905.3125-14.75-.00937905-1.39526245-.01857187-2.79052617-.02758789-4.18579102 1.3434895-23.50264631 1.3434895-23.50264631-3.28491211-44.06420898-27.93944846-4.10725104-58.97507504 2.40919942-82.1328125 18.7890625-19.68134604 15.17662378-31.42517453 34.31799948-34.8671875 59.2109375-2.19100552 20.88978014 3.92064472 43.14207991 17.109375 59.55102539 14.43497762 17.14692211 33.65043508 26.35425905 55.890625 28.44897461 16.43533264 1.05023987 32.86456256-1.45216636 48-8 .93658447-.4036377.93658447-.4036377 1.89208984-.81542969 15.01331714-6.60869717 27.97965328-16.13535424 39.10791016-28.18457031.99549556-1.00448424 1.99382734-2.006211 3-3 1.8125.5625 1.8125.5625 4 2 1.78686054 3.50990464 3 6.04124604 3 10h2c.60472178 13.08550737-.2642756 25.01726765-8.21484375 36.05859375-3.59524624 3.90992863-8.06467501 6.58116563-12.78515625 8.94140625.03480469.66644531.06960938 1.33289063.10546875 2.01953125.38111817 12.97616616-3.34839846 23.93239166-12.16796875 33.60546875-7.86995123 7.34876241-17.66046433 12.3847446-27.9375 15.375-.76957031.22429687-1.53914062.44859375-2.33203125.6796875-5.57558018 1.42562996-10.93584005 1.53571608-16.66796875 1.3203125 0-3.94524129.4383726-5.26857419 2.0625-8.6875 2.1067355-5.09065269 2.54564578-9.0126988.9375-14.3125-1.45889855-3.00621519-2.92653255-5.46326627-6-7-2.08953275-.09497876-4.17954677-.18403129-6.27050781-.23925781-11.56941803-.32534922-22.50332662-1.98926028-33.72949219-4.76074219-.69013184-.16983398-1.38026367-.33966797-2.09130859-.51464844-34.09923635-8.74942237-62.92862259-30.70354292-81.01879883-60.65307617-6.66949657-11.35674625-10.96288493-22.97032831-13.88989258-35.83227539-.226875-.97195313-.45375-1.94390625-.6875-2.9453125-6.03052745-30.06887994 3.24033094-60.93874281 19.65234375-86.0625 5.04521945-7.24283037 10.96328364-13.61537595 17.03515625-19.9921875.65613281-.72058594 1.31226563-1.44117188 1.98828125-2.18359375 16.33311049-17.38234671 40.32012-28.5606744 63.01171875-34.81640625-2.97565778-2.3539828-6.03809798-4.14105823-9.375-5.9375-28.34696777-16.42049962-46.7242926-46.33377629-55.25048828-77.33691406-2.84338917-10.93182-4.55349205-21.48248525-4.56201172-32.78808594-.01224609-.85916016-.02449219-1.71832031-.03710938-2.60351562-.00193359-.84369141-.00386718-1.68738282-.00585937-2.55664063-.00410889-.75031494-.00821777-1.50062988-.01245117-2.27368164.62060147-6.3962493 2.38619481-10.27596438 6.96948242-14.75366211.4665097-.46180664.93301941-.92361328 1.41366577-1.39941406 1.48353467-1.46236913 2.98374942-2.90619684 4.48477173-4.35058594.98417169-.96763371 1.96725437-1.93637636 2.94921875-2.90625 15.45736044-15.19907966 15.45736044-15.19907966 20.42578125-16.09375.01458252.78947021.02916504 1.57894043.04418945 2.39233398.30626855 21.98954374.30626855 21.98954374 3.95581055 43.60766602.19722656.77569336.39445312 1.55138672.59765625 2.35058594 9.46483683 36.0598948 29.70704749 69.91851548 62.28564453 89.40063476 11.34565521 6.4290151 24.11323337 10.97698324 37.11669922 12.2487793.49306641-.72703125.49306641-.72703125.99609375-1.46875 4.04776479-5.70416718 9.371862-13.0588648 16.27734375-15.25390625.56976563-.09152344 1.13953125-.18304688 1.7265625-.27734375-.58007812-1.36318359-.58007812-1.36318359-1.171875-2.75390625-9.68021525-23.18394428-13.4848284-47.63646301-6.828125-72.24609375.26683594-.99773437.53367188-1.99546875.80859375-3.0234375 6.94918728-23.04041648 21.91401039-44.35502178 43.27148437-56.01123047 18.78866993-9.44689736 38.72312872-11.12343215 58.86132813-5.00048828 2.73097299.92427566 5.39654284 1.92968632 8.05859375 3.03515625.48210937-.5053125.96421875-1.010625 1.4609375-1.53125.63164062-.6496875 1.26328125-1.299375 1.9140625-1.96875.62648438-.6496875 1.25296875-1.299375 1.8984375-1.96875 1.7265625-1.53125 1.7265625-1.53125 3.7265625-1.53125 0-.66 0-1.32 0-2 1.77065111-.64633275 3.54152753-1.2920483 5.3125-1.9375.98613281-.35964844 1.97226562-.71929688 2.98828125-1.08984375 10.86230148-3.91420126 22.52072686-3.05484841 33.01953125 1.60546875zm-92.6328125 71.671875c-4.40608082 7.18027985-5.81599792 13.43365271-5.80102539 21.7434082-.00014603.68348008-.00029205 1.36696015-.00044251 2.07115174.00069328 2.24544007.00845816 4.49079583.01631165 6.73622131.00186626 1.56227066.00328918 3.1245419.00428772 4.68681335.00380881 4.10170624.01362507 8.20337679.02470398 12.30506897.012053 4.92681389.01662415 9.85363975.02245331 14.78046418.00968045 7.47564887.02884843 14.9512195.04621124 22.42687225h35c1.89154474-4.72886185 2.24707401-6.99595303 2.23046875-11.92651367.00017624-.67717072.00035248-1.35434143.00053406-2.05203247-.00307689-2.23001996-.02198533-4.45950868-.04350281-6.68942261-.01095385-1.56073472-.021858-3.1214698-.03271484-4.6822052-.02593694-3.27085525-.06128632-6.54147153-.1015625-9.81217957-.04933983-4.16804997-.06199143-8.33533678-.06565857-12.50364208-.00929913-3.22532281-.04525571-6.44996865-.08824158-9.6750021-.01604589-1.53513452-.02246061-3.07040395-.01861572-4.60561752.01170278-9.16878868-.49622403-16.91563791-6.88070679-24.05338478-7.72553748-5.67045297-17.28966369-5.58302992-24.3125 1.25z" fill="#c59306" transform="translate(411.320313 27.578125)"/><path d="m0 0h3c.01458252.78947021.02916504 1.57894043.04418945 2.39233398.30626855 21.98954374.30626855 21.98954374 3.95581055 43.60766602.19722656.77569336.39445312 1.55138672.59765625 2.35058594 9.47346239 36.09275715 29.71616773 69.85951488 62.27905273 89.40063476 9.93339994 5.64360859 21.01803839 9.60423393 32.22509766 11.76025391 2.44563646.62941718 4.08335369 1.7525918 5.89819336 3.48852539-.598125.86625-1.19625 1.7325-1.8125 2.625-7.54079723 13.66435242-5.90367334 31.29298464-6.1875 46.375-1.01199463.03758423-1.01199463.03758423-2.04443359.07592773-3.11031834.11733537-6.22043337.23942754-9.33056641.36157227-1.06089844.03931641-2.12179688.07863281-3.21484375.11914062-13.38781807.5290067-13.38781807.5290067-26.41015625 3.44335938-1.350977.35492053-2.70398289.70218017-4.05859375 1.04296875-26.47938286 6.84146205-49.67636807 19.87157096-63.94140625 43.95703125-10.87913013 20.23424418-12.94406092 42.86621716-6.68017578 64.80664062 6.29735736 20.30705619 18.88419238 35.85107203 37.57836914 46.15551758 21.5293973 11.31728567 46.79917382 11.33503002 69.85961914 5.0065918 3.49571953-1.17851137 6.85649946-2.50404691 10.2421875-3.96875.93658447-.4036377.93658447-.4036377 1.89208984-.81542969 15.01331714-6.60869717 27.97965328-16.13535424 39.10791016-28.18457031.99549556-1.00448424 1.99382734-2.006211 3-3 1.8125.5625 1.8125.5625 4 2 1.78686054 3.50990464 3 6.04124604 3 10h2c.60472178 13.08550737-.2642756 25.01726765-8.21484375 36.05859375-3.59524624 3.90992863-8.06467501 6.58116563-12.78515625 8.94140625.03480469.66644531.06960938 1.33289063.10546875 2.01953125.38111817 12.97616616-3.34839846 23.93239166-12.16796875 33.60546875-7.86995123 7.34876241-17.66046433 12.3847446-27.9375 15.375-.76957031.22429687-1.53914062.44859375-2.33203125.6796875-5.57558018 1.42562996-10.93584005 1.53571608-16.66796875 1.3203125 0-3.94524129.4383726-5.26857419 2.0625-8.6875 2.1067355-5.09065269 2.54564578-9.0126988.9375-14.3125-1.45889855-3.00621519-2.92653255-5.46326627-6-7-2.08953275-.09497876-4.17954677-.18403129-6.27050781-.23925781-11.56941803-.32534922-22.50332662-1.98926028-33.72949219-4.76074219-.69013184-.16983398-1.38026367-.33966797-2.09130859-.51464844-34.09923635-8.74942237-62.92862259-30.70354292-81.01879883-60.65307617-6.66949657-11.35674625-10.96288493-22.97032831-13.88989258-35.83227539-.226875-.97195313-.45375-1.94390625-.6875-2.9453125-6.03052745-30.06887994 3.24033094-60.93874281 19.65234375-86.0625 5.04521945-7.24283037 10.96328364-13.61537595 17.03515625-19.9921875.65613281-.72058594 1.31226563-1.44117188 1.98828125-2.18359375 16.33311049-17.38234671 40.32012-28.5606744 63.01171875-34.81640625-2.97565778-2.3539828-6.03809798-4.14105823-9.375-5.9375-28.34696777-16.42049962-46.7242926-46.33377629-55.25048828-77.33691406-2.84338917-10.93182-4.55349205-21.48248525-4.56201172-32.78808594-.01224609-.85916016-.02449219-1.71832031-.03710938-2.60351562-.00193359-.84369141-.00386718-1.68738282-.00585937-2.55664063-.00410889-.75031494-.00821777-1.50062988-.01245117-2.27368164.62060147-6.3962493 2.38619481-10.27596438 6.96948242-14.75366211.4665097-.46180664.93301941-.92361328 1.41366577-1.39941406 1.48353467-1.46236913 2.98374942-2.90619684 4.48477173-4.35058594.98417169-.96763371 1.96725437-1.93637636 2.94921875-2.90625 4.85769217-4.77412466 9.80740764-9.41695047 14.97802734-13.8515625 1.40182034-1.17085452 1.40182034-1.17085452 2.44775391-2.2421875z" fill="#0a569e" transform="translate(132 41)"/><path d="m0 0c5.01735006 4.15793447 8.19862293 8.09391619 10.51953125 14.171875.4125.9075.825 1.815 1.25 2.75 2.36260825 10.23796909.61234034 19.39434589-4.5 28.46875-4.44914156 6.57259548-10.79810492 11.03329641-18 14.21875-9.87103844 1.48065577-18.9095995 1.55208198-27.75-3.4375-.78117187-.43957031-1.56234375-.87914062-2.3671875-1.33203125-7.61563996-5.06427237-12.15747021-13.61130038-14.30078125-22.41015625-1.36119041-9.25609481.96646562-18.87003948 6.29296875-26.6328125 13.04828966-15.4682732 32.75290076-17.6645944 48.85546875-5.796875z" fill="#0b579e" transform="translate(215.480469 80.828125)"/><path d="m0 0 2.109375 1.25c7.09496226 4.69441112 11.37066695 11.50534226 13.328125 19.75 1.52306505 10.04908898-.74774682 19.20181643-6.1875 27.75-7.71306613 7.71306613-16.20087544 12.21430008-27.25 12.25-10.05214152-.66917295-16.92357524-4.5246734-23.8125-11.75-5.94212367-7.310194-7.91485747-14.64121237-7.5625-24.01171875 1.11657317-9.64207452 5.07796976-16.85177675 12.375-23.23828125 10.86423907-7.45689972 25.51930466-9.23193407 37-2z" fill="#0b579f" transform="translate(211 262)"/><path d="m0 0c.99.33 1.98.66 3 1 .03738281.825.07476562 1.65.11328125 2.5 1.55282432 27.28099202 10.0068317 53.75021061 26.88671875 75.5.68707031.88945312 1.37414062 1.77890625 2.08203125 2.6953125 4.64469431 5.84043873 9.60325864 11.10702932 15.046875 16.2109375 1.87109375 2.09375 1.87109375 2.09375 1.87109375 5.09375-10.40256635-2.81380893-17.90683943-6.66014427-26.3449707-13.38305664-2.3811373-1.89556068-4.7123104-3.65062831-7.33862305-5.19506836-2.41308432-1.48121871-3.88844304-2.94142167-5.69140625-5.109375-.59683594-.70898438-1.19367188-1.41796875-1.80859375-2.1484375-.59941406-.71414062-1.19882813-1.42828125-1.81640625-2.1640625-1.14468279-1.27186977-2.2905095-2.54271097-3.4375-3.8125-10.61178324-12.23892334-24.34949542-30.76784023-27.05078125-47.1484375.687764-4.28064314 3.14168992-5.9268829 6.42578125-8.4140625 1.19365025-.95064142 2.3863534-1.90247322 3.578125-2.85546875.59103516-.4645459 1.18207031-.9290918 1.79101562-1.40771484 3.12860802-2.5160576 6.04165552-5.27239113 8.98632813-7.99853516 1.70703125-1.36328125 1.70703125-1.36328125 3.70703125-1.36328125 0-.66 0-1.32 0-2z" fill="#c99c1b" transform="translate(86 90)"/><path d="m0 0c.25652344.7528125.51304688 1.505625.77734375 2.28125 2.98847476 8.29125656 6.80930375 15.68572221 11.234375 23.28515625 1.421553 2.45490194 2.77102268 4.87539793 3.98828125 7.43359375h2c1.3046875 1.546875 1.3046875 1.546875 2.875 3.75 7.29021641 9.6091418 15.8679725 17.87557613 26.125 24.25.57685547.36222656 1.15371094.72445312 1.74804688 1.09765625 12.80964075 8.42081611 12.80964075 8.42081611 27.25195312 12.90234375-.495 1.98-.495 1.98-1 4-20.73804048-.77201948-39.24004248-6.04276219-57-17-.87857666-.54019775-.87857666-.54019775-1.77490234-1.09130859-15.52267946-9.69330478-30.0100782-22.23376031-38.22509766-38.90869141 0-1.32 0-2.64 0-4h2c0-.66 0-1.32 0-2 1.3984375-1.41015625 1.3984375-1.41015625 3.375-3.0625 4.28334459-3.62554524 8.40872133-7.39949548 12.5234375-11.21484375 2.1015625-1.72265625 2.1015625-1.72265625 4.1015625-1.72265625z" fill="#c99c1c" transform="translate(53 121)"/><path d="m0 0h45c-1.60726647 3.21453294-2.37903849 4.62221455-4.79296875 6.953125-.54382324.53222168-1.08764648 1.06444336-1.64794922 1.61279297-.57637207.55574707-1.15274414 1.11149414-1.74658203 1.68408203-5.26754193 5.14842324-5.26754193 5.14842324-10.1875 10.625-5.23803664 6.17717958-11.16609786 11.75903589-16.93066406 17.43896484-1.06629142 1.06106751-2.12203803 2.13294543-3.16210938 3.21972657-2.1984444 2.29134799-3.45518976 3.44062966-6.53222656 4.46630859 0-15.18 0-30.36 0-46z" fill="#0e589d" transform="translate(412 197)"/><path d="m0 0h1v153h2v2h41v1c-14.52 0-29.04 0-44 0-.13247651-14.00798146-.26320984-28.01597654-.39115143-42.02400017-.05951886-6.50958806-.11970371-13.01916831-.18160248-19.52873421-.47211114-49.75934592-.47211114-49.75934592-.5153656-73.30871963-.00372459-1.83326358-.00903975-3.66652468-.01602173-5.49977875-.00873631-2.47743293-.01101198-4.95477806-.01109314-7.43222427-.00357009-.72561756-.00714019-1.45123512-.01081848-2.1988411.01136745-4.89301646.01136745-4.89301646 1.12605286-6.00770187z" fill="#f2ecdb" transform="translate(412 41)"/><path d="m0 0c.495 1.485.495 1.485 1 3-1.62555811 1.95785701-2.59591571 2.90362857-5.10417175 3.50183105-7.81799114.52035231-15.62850322.68945581-23.46131325.75852967-2.42233972.02143838-4.84456681.04842726-7.26683617.07667541-5.1600132.05917795-10.32008463.11141484-15.48017883.16296387-25.93450979.19092835-25.93450979.19092835-51.85546875.96875-.86740311.03734253-1.73480621.07468506-2.62849426.11315918-3.52721089.17820852-6.79938305.48702604-10.20353699 1.41809082 2.2417705-2.57803608 3.65208466-3.41764192 7-4 2.62391469-.11243278 5.22317929-.17460589 7.84765625-.18945312.78775818-.00829331 1.57551636-.01658661 2.387146-.02513123 1.7110698-.01738504 3.42216321-.03255607 5.13327026-.04577637 2.72787379-.02114858 5.4556349-.0481746 8.18344116-.07667541 5.81611716-.05965467 11.63229085-.11161337 17.44848633-.16296387 6.69168771-.05971225 13.38332354-.1227218 20.07492065-.19187927 2.65152287-.02602604 5.30305236-.04718492 7.95462037-.06800843 4.99108315-.04444809 9.98034208-.13443261 14.97045898-.2401123.90893005-.01519684 1.81786011-.03039368 2.7543335-.04605103 2.75348069-.05272724 5.50483306-.1334157 8.25738525-.22152709 1.26382256-.01954365 1.26382256-.01954365 2.55317688-.03948212 4.89001754-.18123101 4.89001754-.18123101 8.99687195-2.73871613.4746167-.6448938.9492334-1.28978759 1.43823242-1.95422363z" fill="#f1e8cd" transform="translate(416 240)"/><path d="m0 0h1c.14543189 5.77588954.28767561 11.55184671.42724609 17.32788086.0476739 1.95574954.09614719 3.9114798.14550782 5.8671875.3258632 12.9380993.4949818 25.86270799.42724609 38.80493164-.33 0-.66 0-1 0-.05534912-.90355225-.11069824-1.80710449-.16772461-2.73803711-.20690656-3.34172396-.41794833-6.68313253-.63183594-10.02441406-.09183943-1.44813724-.1820132-2.89638108-.27050781-4.34472656-.1272447-2.07785626-.26041045-4.1552596-.39477539-6.23266602-.07855225-1.25159912-.15710449-2.50319824-.23803711-3.79272461.01832716-2.76213929.01832716-2.76213929-1.29711914-3.86743164-10.43091689-1.86925723-21.44704717-1.09552178-32-1 0-.33 0-.66 0-1 7.56346023-.93934321 15.01002662-1.12216523 22.625-1.0625l11.375.0625c0-9.24 0-18.48 0-28z" fill="#68878f" transform="translate(232 215)"/><path d="m0 0c4.01331172.52347544 7.92185342 1.19157239 11.875 2.0625 4.80034419.9939363 9.23214741 1.09533395 14.125.9375-.66-.66-1.32-1.32-2-2 2.64.33 5.28.66 8 1-.33 1.32-.66 2.64-1 4-25.96666667-.96666667-25.96666667-.96666667-31-6z" fill="#f0e6c9" transform="translate(97 194)"/><path d="m0 0h14c.94948982 11.03781915 1.10622027 21.92948696 1 33-.33 0-.66 0-1 0-.08302368-1.35532837-.08302368-1.35532837-.16772461-2.73803711-.20690656-3.34172396-.41794833-6.68313253-.63183594-10.02441406-.09183943-1.44813724-.1820132-2.89638108-.27050781-4.34472656-.1272447-2.07785626-.26041045-4.1552596-.39477539-6.23266602-.07855225-1.25159912-.15710449-2.50319824-.23803711-3.79272461.01832716-2.76213929.01832716-2.76213929-1.29711914-3.86743164-1.84891946-.23363881-3.70488031-.41303635-5.5625-.5625-1.01191406-.08378906-2.02382812-.16757813-3.06640625-.25390625-1.17369141-.09087891-1.17369141-.09087891-2.37109375-.18359375 0-.33 0-.66 0-1z" fill="#f2efdf" transform="translate(219 244)"/><path d="m0 0 2 1c-1.38759251 1.61130023-2.78545623 3.21375841-4.1875 4.8125-.77730469.89332031-1.55460938 1.78664062-2.35546875 2.70703125-2.35120244 2.37363045-4.52494309 3.91286922-7.45703125 5.48046875 2.61756132-5.67138285 6.75311807-10.56934643 12-14z" fill="#dcc073" transform="translate(254 175)"/><path d="m0 0c3.74321017 3.13207382 7.41449348 6.30828967 10.9375 9.6875.58652344.56074219 1.17304688 1.12148437 1.77734375 1.69921875 1.28515625 1.61328125 1.28515625 1.61328125 1.28515625 4.61328125-2.31-.66-4.62-1.32-7-2l4-1c-.7940625-.77085937-1.588125-1.54171875-2.40625-2.3359375-1.03151041-1.01275567-2.06274627-2.02579102-3.09375-3.0390625-.78697266-.76183594-.78697266-.76183594-1.58984375-1.5390625-1.34168806-1.32426354-2.6301144-2.70199615-3.91015625-4.0859375 0-.66 0-1.32 0-2z" fill="#efe5c8" transform="translate(121 177)"/><path d="m0 0c0 3 0 3-1.34765625 4.578125-.56589844.55171875-1.13179687 1.1034375-1.71484375 1.671875-2.73708037 3.00630139-2.95026865 3.34778763-2.8125 7.6875l.875 3.0625c-2.52259061-1.97420135-2.9929808-2.96745642-3.6875-6.1875-.103125-.928125-.20625-1.85625-.3125-2.8125h2c0-.66 0-1.32 0-2 1.53125-1.5078125 1.53125-1.5078125 3.5-3.125.6496875-.53882813 1.299375-1.07765625 1.96875-1.6328125.75796875-.61488281.75796875-.61488281 1.53125-1.2421875z" fill="#e0ca89" transform="translate(40 131)"/><path d="m0 0 1 3c-1.72400465 2.16311438-2.57555794 2.93875073-5.36010742 3.34057617-.90596924-.01571045-1.81193848-.0314209-2.74536133-.04760742-.98291016-.00966797-1.96582031-.01933594-2.97851563-.02929687-1.02416015-.02513672-2.04832031-.05027344-3.10351562-.07617188-1.03576172-.01353516-2.07152344-.02707031-3.13867188-.04101562-2.55846511-.03537049-5.11588592-.08472894-7.67382812-.14648438 0-.33 0-.66 0-1 .58491211-.0093457 1.16982422-.01869141 1.77246094-.02832031 2.66002486-.05381248 5.31831128-.13743418 7.97753906-.22167969 1.38058594-.02126953 1.38058594-.02126953 2.7890625-.04296875 5.45911875-.12407993 5.45911875-.12407993 10.1015625-2.75390625.67289062-.96679688.67289062-.96679688 1.359375-1.953125z" fill="#eae1c3" transform="translate(416 240)"/><path d="m0 0 2 1c-.75796875.77923828-.75796875.77923828-1.53125 1.57421875-.6496875.69738281-1.299375 1.39476563-1.96875 2.11328125-.6496875.68449219-1.299375 1.36898437-1.96875 2.07421875-1.80938784 2.64484497-1.8390417 4.09990514-1.53125 7.23828125-2-2-2-2-2.5625-4.75.82416369-4.76183464 3.77173103-6.52296722 7.5625-9.25z" fill="#e3ce92" transform="translate(69 105)"/><path d="m0 0c2 1.8125 2 1.8125 4 4v3c-4.05606165-.46800711-7.46588679-.87953208-11-3 2.31-.66 4.62-1.32 7-2 0-.66 0-1.32 0-2z" fill="#eee4c7" transform="translate(420 36)"/><path d="m0 0 1 2c-1.73397418 3.65047197-3.19333016 5.55609075-7 7 1.52708963-3.43595166 3.59927045-6.11912454 6-9z" fill="#6997c1" transform="translate(96 248)"/><path d="m0 0 2 1c-1.61594832 2.04119788-3.2856382 4.04072937-5 6-.66 0-1.32 0-2 0 1.29299694-2.88437779 2.65941363-4.87219421 5-7z" fill="#7aa2c8" transform="translate(172 81)"/><path d="m0 0h1v5c-.33 0-.66 0-1 0 0-1.65 0-3.3 0-5z" fill="#f7f7f7" transform="translate(136 42)"/></svg>